<svg width="132" height="248" viewBox="0 0 132 248" fill="none" xmlns="http://www.w3.org/2000/svg">
<path d="M65.851 0C29.4833 0 0 30.2889 0 67.6504C0 96.2481 17.3607 120.848 41.9052 130.688L33.9731 157.748H43.4018L50.2863 133.456C55.2251 134.686 60.4632 135.301 65.7014 135.301C67.7967 135.301 69.8919 135.147 71.9872 134.993L69.4429 126.076C68.2456 126.23 66.8987 126.23 65.7014 126.23C61.2115 126.23 56.8714 125.615 52.6808 124.692L65.851 79.028L78.8716 124.846L81.2662 133.456L88.1506 157.595H97.5793L89.6472 130.688C114.192 120.848 131.702 96.4019 131.702 67.6504C131.702 30.2889 102.219 0 65.851 0ZM87.103 122.078L71.2389 67.6504H60.3136L44.4495 121.925C23.4968 113.161 8.83003 92.2506 8.83003 67.6504C8.83003 35.3627 34.2725 9.07131 65.851 9.07131C97.4296 9.07131 122.872 35.3627 122.872 67.6504C122.872 92.2506 108.056 113.314 87.103 122.078Z" fill="white"/>
<path d="M85.6049 115.774L71.5367 67.6501H60.6115L46.5433 115.774C19.7539 124.384 0.297872 150.061 0.297872 180.35C0.297872 217.711 29.7812 248 66.1489 248C102.517 248 132 217.711 132 180.35C131.85 150.061 112.394 124.384 85.6049 115.774ZM65.9992 239.082C34.4207 239.082 8.97826 212.791 8.97826 180.503C8.97826 156.518 23.0464 135.762 43.2507 126.844L34.271 157.748H43.6997L65.9992 79.0277L75.7272 113.468C72.5843 113.007 69.2918 112.699 65.9992 112.699H65.8496L63.3054 121.77C64.2033 121.77 65.1013 121.77 65.9992 121.77C70.3394 121.77 74.3803 122.232 78.4212 123.154L88.1506 157.595H97.5793L88.4485 126.537C108.653 135.608 122.871 156.211 122.871 180.35C123.17 212.791 97.5778 239.082 65.9992 239.082Z" fill="white"/>
</svg>
