<svg width="620" height="213" viewBox="0 0 620 213" fill="none" xmlns="http://www.w3.org/2000/svg">
    <path d="M241.449 135.364H285.628V128.005H249.169V96.8184H273.289V89.8543H249.169V65.4491H285.628V58.0903H241.449V135.364Z" fill="white"/>
    <path d="M383.736 120.78L345.895 58.0904H337.741V135.364H345.5V73.2028L383.343 135.364H391.493V58.0904H383.736V120.78Z" fill="white"/>
    <path d="M191.048 58.0905H181.995L163.539 88.8829L145.045 58.0905H135.978L158.893 96.6166L135.622 135.365H144.641L163.512 103.94L182.384 135.365H191.41L168.141 96.6166L191.048 58.0905Z" fill="white"/>
    <path d="M464.949 92.3326L443.371 58.0905H434.544L461.138 99.8749V135.37H468.856V99.8749L495.451 58.0905H486.638L464.949 92.3326Z" fill="white"/>
    <path d="M76.9304 104.782L62.924 58.0901H53.1922L39.1964 104.746C20.758 97.2671 7.75024 79.2015 7.75024 58.0901C7.75024 30.2854 30.3035 7.74561 58.1248 7.74561C85.9448 7.74561 108.498 30.2854 108.498 58.0901C108.498 79.2464 95.4322 97.3344 76.9304 104.782ZM58.1248 0C26.0222 0 0 26.0079 0 58.0901C0 82.7079 15.3301 103.733 36.9626 112.192L30.0115 135.364H38.3985L44.4566 114.55C48.8409 115.606 53.4142 116.18 58.1248 116.18C59.9953 116.18 61.8447 116.084 63.6703 115.911L61.459 108.312C60.3547 108.385 59.245 108.435 58.1248 108.435C54.1658 108.435 50.3191 107.963 46.6256 107.101L58.0588 67.8187L77.719 135.364H86.1047L79.1655 112.232C100.863 103.806 116.25 82.7528 116.25 58.0901C116.25 26.0079 90.2262 0 58.1248 0Z" fill="white"/>
    <path d="M561.875 205.253C534.054 205.253 511.501 182.713 511.501 154.909C511.501 134.263 523.944 116.54 541.739 108.774L533.763 135.364H542.149L561.809 67.8189L570.434 97.4508C567.64 97.0389 564.784 96.8184 561.875 96.8184C561.834 96.8184 561.795 96.821 561.754 96.8223L559.483 104.625C560.275 104.588 561.073 104.564 561.875 104.564C565.649 104.564 569.322 104.992 572.858 105.779L581.469 135.364H589.856L581.852 108.687C599.733 116.418 612.25 134.2 612.25 154.909C612.25 182.713 589.697 205.253 561.875 205.253ZM579.069 99.4046L566.674 58.0903H556.944L544.531 99.4667C520.903 106.843 503.75 128.866 503.75 154.909C503.75 186.991 529.774 213 561.875 213C593.977 213 620 186.991 620 154.909C620 128.809 602.776 106.732 579.069 99.4046Z" fill="white"/>
</svg>
